<svg width="12" height="12" viewBox="0 0 12 12" fill="none" xmlns="http://www.w3.org/2000/svg">
<path d="M1 3C1 2.73478 1.10536 2.48043 1.29289 2.29289C1.48043 2.10536 1.73478 2 2 2H10C10.2652 2 10.5196 2.10536 10.7071 2.29289C10.8946 2.48043 11 2.73478 11 3V8.5C11 8.76522 10.8946 9.01957 10.7071 9.20711C10.5196 9.39464 10.2652 9.5 10 9.5H7.707L6.3535 10.8535C6.25974 10.9472 6.13258 10.9999 6 10.9999C5.86742 10.9999 5.74026 10.9472 5.6465 10.8535L4.293 9.5H2C1.73478 9.5 1.48043 9.39464 1.29289 9.20711C1.10536 9.01957 1 8.76522 1 8.5V3ZM10 3H2V8.5H4.5C4.6326 8.50003 4.75975 8.55272 4.8535 8.6465L6 9.793L7.1465 8.6465C7.24025 8.55272 7.3674 8.50003 7.5 8.5H10V3ZM3 4.75C3 4.61739 3.05268 4.49021 3.14645 4.39645C3.24021 4.30268 3.36739 4.25 3.5 4.25H8.5C8.63261 4.25 8.75979 4.30268 8.85355 4.39645C8.94732 4.49021 9 4.61739 9 4.75C9 4.88261 8.94732 5.00979 8.85355 5.10355C8.75979 5.19732 8.63261 5.25 8.5 5.25H3.5C3.36739 5.25 3.24021 5.19732 3.14645 5.10355C3.05268 5.00979 3 4.88261 3 4.75ZM3 6.75C3 6.61739 3.05268 6.49021 3.14645 6.39645C3.24021 6.30268 3.36739 6.25 3.5 6.25H6.5C6.63261 6.25 6.75979 6.30268 6.85355 6.39645C6.94732 6.49021 7 6.61739 7 6.75C7 6.88261 6.94732 7.00979 6.85355 7.10355C6.75979 7.19732 6.63261 7.25 6.5 7.25H3.5C3.36739 7.25 3.24021 7.19732 3.14645 7.10355C3.05268 7.00979 3 6.88261 3 6.75Z" fill="black"/>
</svg>
